<svg width="213" height="32" viewBox="0 0 213 32" fill="none" xmlns="http://www.w3.org/2000/svg">
<g id="Group 24">
<g id="Group 23">
<g id="Group 22">
<g id="Group">
<path id="Vector" d="M61.1369 0L67.202 9.34122L77.9603 12.2229L70.9505 20.8779L71.5343 32L61.1369 28.0078L50.7395 32L51.3233 20.8779L44.3135 12.2229L55.0718 9.34122L61.1369 0Z" fill="#F85559"/>
</g>
<g id="Group_2">
<path id="Vector_2" d="M61.2051 0L67.2702 9.34122L78.0285 12.2229L71.0187 20.8779L71.6025 32L61.2051 28.0078V0Z" fill="#FBC0A8"/>
</g>
</g>
<g id="Group_3">
<path id="Vector_3" d="M16.8234 0L22.8886 9.34122L33.6468 12.2229L26.637 20.8779L27.2208 32L16.8234 28.0078L6.42603 32L7.00981 20.8779L0 12.2229L10.7583 9.34122L16.8234 0Z" fill="#F85559"/>
</g>
<g id="Group_4">
<path id="Vector_4" d="M106.157 0L112.222 9.34122L122.98 12.2229L115.97 20.8779L116.554 32L106.157 28.0078L95.7593 32L96.3431 20.8779L89.3333 12.2229L100.092 9.34122L106.157 0Z" fill="#FBC0A8"/>
</g>
<g id="Group_5">
<path id="Vector_5" d="M195.49 0L201.555 9.34122L212.314 12.2229L205.304 20.8779L205.888 32L195.49 28.0078L185.093 32L185.677 20.8779L178.667 12.2229L189.425 9.34122L195.49 0Z" fill="#FBC0A8"/>
</g>
<g id="Group_6">
<path id="Vector_6" d="M151.49 0L157.555 9.34122L168.314 12.2229L161.304 20.8779L161.888 32L151.49 28.0078L141.093 32L141.677 20.8779L134.667 12.2229L145.425 9.34122L151.49 0Z" fill="#FBC0A8"/>
</g>
</g>
</g>
</svg>
